<?xml version="1.0" encoding="UTF-8"?>
<svg width="48px" height="48px" viewBox="0 0 60 61" version="1.1" xmlns="http://www.w3.org/2000/svg" xmlns:xlink="http://www.w3.org/1999/xlink">
    <!-- Generator: Sketch 61 (89581) - https://sketch.com -->
    <title>3438912</title>
    <desc>Created with Sketch.</desc>
    <g id="EXPAND" stroke="none" stroke-width="1" fill="none" fill-rule="evenodd">
        <g id="切图-EXPAND-China备份" transform="translate(-52.000000, -217.000000)" fill-rule="nonzero">
            <g id="3438912" transform="translate(52.000000, 217.000000)">
                <path d="M10.62375,15.04875 L4.37625,15.04875 C1.96125,15.04875 0,17.01 0,19.42125 L0,47.54625 L4.99875,47.54625 C6.37875,47.54625 7.5,48.6675 7.5,50.0475 C7.5,51.4275 6.37875,52.54875 4.99875,52.54875 L0,52.54875 L0,55.6725 C0,58.08375 1.96125,60.04875 4.37625,60.04875 L10.6275,60.04875 C13.03875,60.04875 15.00375,58.0875 15.00375,55.6725 L15.00375,19.42125 C15,17.01 13.03875,15.04875 10.62375,15.04875 L10.62375,15.04875 Z M10.00125,40.04625 C10.00125,41.42625 8.88,42.5475 7.5,42.5475 C6.12,42.5475 4.99875,41.42625 4.99875,40.04625 L4.99875,25.04625 C4.99875,23.66625 6.12,22.545 7.5,22.545 C8.88,22.545 10.00125,23.66625 10.00125,25.04625 L10.00125,40.04625 Z" id="形状" fill="#AEAEAE"></path>
                <path d="M28.125,0.04875 L21.87375,0.04875 C19.4625,0.04875 17.4975,2.01 17.4975,4.425 L17.4975,47.55 L22.5,47.55 C23.88,47.55 25.00125,48.67125 25.00125,50.05125 C25.00125,51.43125 23.88,52.54875 22.5,52.54875 L17.50125,52.54875 L17.50125,55.6725 C17.50125,58.08375 19.4625,60.04875 21.8775,60.04875 L28.125,60.04875 C30.53625,60.04875 32.50125,58.0875 32.50125,55.6725 L32.50125,4.42125 C32.50125,2.01 30.53625,0.04875 28.125,0.04875 L28.125,0.04875 Z M27.49875,40.04625 C27.49875,41.42625 26.3775,42.5475 24.9975,42.5475 C23.6175,42.5475 22.5,41.43 22.5,40.04625 L22.5,10.04625 C22.5,8.66625 23.62125,7.545 25.00125,7.545 C26.38125,7.545 27.5025,8.66625 27.5025,10.04625 L27.5025,40.04625 L27.49875,40.04625 Z" id="形状" fill="#E51400"></path>
                <path d="M45.10875,15.0075 L39.07125,16.62375 C36.7425,17.24625 35.355,19.65375 35.9775,21.9825 L43.25625,49.1475 L48.08625,47.85375 C49.42125,47.4975 50.79,48.28875 51.15,49.62 C51.50625,50.955 50.715,52.32375 49.38375,52.68 L44.55375,53.97375 L45.36375,56.9925 C45.98625,59.32125 48.39375,60.70875 50.7225,60.08625 L56.76,58.47 C59.08875,57.8475 60.47625,55.44 59.85375,53.11125 L50.47125,18.0975 C49.845,15.76875 47.44125,14.38125 45.10875,15.0075 Z M50.9775,39.315 C51.33375,40.65 50.5425,42.01875 49.21125,42.375 C47.88,42.73125 46.5075,41.94 46.1475,40.60875 L42.26625,26.11875 C41.91,24.78375 42.70125,23.415 44.0325,23.055 C45.36375,22.695 46.73625,23.49 47.0925,24.82125 L50.9775,39.315 Z" id="形状" fill="#AEAEAE"></path>
            </g>
        </g>
    </g>
</svg>