<?xml version="1.0" encoding="UTF-8"?>
<svg width="48px" height="40px" viewBox="0 0 60 50" version="1.1" xmlns="http://www.w3.org/2000/svg" xmlns:xlink="http://www.w3.org/1999/xlink">
    <!-- Generator: Sketch 61 (89581) - https://sketch.com -->
    <title>2911304</title>
    <desc>Created with Sketch.</desc>
    <g id="EXPAND" stroke="none" stroke-width="1" fill="none" fill-rule="evenodd">
        <g id="切图-EXPAND-China备份" transform="translate(-170.000000, -217.000000)" fill-rule="nonzero">
            <g id="2911304" transform="translate(170.000000, 217.000000)">
                <path d="M37.5,11.24875 C36.12,11.24875 34.99875,10.1275 34.99875,8.7475 L34.99875,4.9975 L24.9975,4.9975 L24.9975,8.7475 C24.9975,10.1275 23.87625,11.24875 22.49625,11.24875 C21.11625,11.24875 19.995,10.1275 19.995,8.7475 L19.995,4.9975 C19.995,2.24125 22.2375,-0.00125 24.99375,-0.00125 L34.995,-0.00125 C37.75125,-0.00125 39.9937874,2.24125 39.9937874,4.9975 L39.9937874,8.7475 C40.00125,10.13125 38.88,11.24875 37.5,11.24875 Z" id="路径" fill="#AEAEAE"></path>
                <path d="M45,26.24875 L45,28.5475 C45,29.57125 44.14875,30.4225 43.125,30.4225 C42.10125,30.4225 41.25,29.57125 41.25,28.5475 L41.25,26.24875 L18.75,26.24875 L18.75,28.5475 C18.75,29.57125 17.89875,30.4225 16.875,30.4225 C15.85125,30.4225 15,29.57125 15,28.5475 L15,26.24875 L0,26.24875 L0,43.12375 C0,46.9225 3.075,49.9975 6.87375,49.9975 L53.1225,49.9975 C56.92125,49.9975 59.99625,46.9225 59.99625,43.12375 L59.99625,26.24875 L45,26.24875 Z" id="路径" fill="#E51400"></path>
                <path d="M53.12625,7.49875 L6.87375,7.49875 C3.075,7.49875 7.10542736e-15,10.57375 7.10542736e-15,14.37625 L7.10542736e-15,22.5025 L15,22.5025 L15,19.375 C15,18.35125 15.85125,17.5 16.875,17.5 C17.89875,17.5 18.75,18.35125 18.75,19.375 L18.75,22.49875 L41.25,22.49875 L41.25,19.375 C41.25,18.35125 42.10125,17.5 43.125,17.5 C44.14875,17.5 45,18.35125 45,19.375 L45,22.49875 L60,22.49875 L60,14.3725 C60,10.57375 56.925,7.49875 53.12625,7.49875 Z" id="路径" fill="#AEAEAE"></path>
            </g>
        </g>
    </g>
</svg>