<?xml version="1.0" encoding="UTF-8"?>
<svg width="48px" height="48px" viewBox="0 0 60 60" version="1.1" xmlns="http://www.w3.org/2000/svg" xmlns:xlink="http://www.w3.org/1999/xlink">
    <!-- Generator: Sketch 61 (89581) - https://sketch.com -->
    <title>2911375</title>
    <desc>Created with Sketch.</desc>
    <g id="EXPAND" stroke="none" stroke-width="1" fill="none" fill-rule="evenodd">
        <g id="切图-EXPAND-China备份" transform="translate(-288.000000, -217.000000)" fill-rule="nonzero">
            <g id="2911375" transform="translate(288.000000, 217.000000)">
                <g id="编组" fill="#AEAEAE">
                    <path d="M30,8.64 C28.965,8.64 28.125,7.8 28.125,6.765 L28.125,1.875 C28.125,0.84 28.965,0 30,0 C31.035,0 31.875,0.84 31.875,1.875 L31.875,6.765 C31.875,7.8 31.035,8.64 30,8.64 Z" id="路径"></path>
                    <path d="M46.42875,15.44625 C45.94875,15.44625 45.46875,15.2625 45.10125,14.89875 C44.37,14.1675 44.37,12.97875 45.10125,12.2475 L48.5625,8.78625 C49.29375,8.055 50.4825,8.055 51.21375,8.78625 C51.945,9.5175 51.945,10.70625 51.21375,11.4375 L47.7525,14.89875 C47.38875,15.2625 46.90875,15.44625 46.42875,15.44625 Z" id="路径"></path>
                    <path d="M58.125,31.875 L53.235,31.875 C52.2,31.875 51.36,31.035 51.36,30 C51.36,28.965 52.2,28.125 53.235,28.125 L58.125,28.125 C59.16,28.125 60,28.965 60,30 C60,31.035 59.16,31.875 58.125,31.875 Z" id="路径"></path>
                    <path d="M49.88625,51.76125 C49.40625,51.76125 48.92625,51.5775 48.55875,51.21375 L45.0975,47.7525 C44.36625,47.02125 44.36625,45.8325 45.0975,45.10125 C45.82875,44.37 47.0175,44.37 47.74875,45.10125 L51.21,48.5625 C51.94125,49.29375 51.94125,50.4825 51.21,51.21375 C50.84625,51.58125 50.36625,51.76125 49.88625,51.76125 L49.88625,51.76125 Z" id="路径"></path>
                    <path d="M10.11375,51.76125 C9.63375,51.76125 9.15375,51.5775 8.78625,51.21375 C8.055,50.4825 8.055,49.29375 8.78625,48.5625 L12.2475,45.10125 C12.97875,44.37 14.1675,44.37 14.89875,45.10125 C15.63,45.8325 15.63,47.02125 14.89875,47.7525 L11.4375,51.21375 C11.07,51.58125 10.59375,51.76125 10.11375,51.76125 L10.11375,51.76125 Z" id="路径"></path>
                    <path d="M6.765,31.875 L1.875,31.875 C0.84,31.875 0,31.035 0,30 C0,28.965 0.84,28.125 1.875,28.125 L6.765,28.125 C7.8,28.125 8.64,28.965 8.64,30 C8.64,31.035 7.8,31.875 6.765,31.875 Z" id="路径"></path>
                    <path d="M13.57125,15.44625 C13.09125,15.44625 12.61125,15.2625 12.24375,14.89875 L8.7825,11.4375 C8.05125,10.70625 8.05125,9.5175 8.7825,8.78625 C9.51375,8.055 10.7025,8.055 11.43375,8.78625 L14.895,12.2475 C15.62625,12.97875 15.62625,14.1675 14.895,14.89875 C14.53125,15.2625 14.05125,15.44625 13.57125,15.44625 L13.57125,15.44625 Z" id="路径"></path>
                </g>
                <path d="M37.5,52.5 L37.5,55.62375 C37.5,58.02375 35.52375,60 33.12375,60 L26.8725,60 C24.77625,60 22.5,58.39875 22.5,54.9 L22.5,52.5 L37.5,52.5 Z" id="路径" fill="#AEAEAE"></path>
                <path d="M41.025,16.39875 C36.92625,13.0725 31.52625,11.775 26.25,12.9 C19.62375,14.27625 14.25,19.67625 12.87375,26.29875 C11.475,33.0975 14.025,39.8475 19.47375,43.9725 C20.9475,45.07125 21.975,46.77375 22.32375,48.74625 L22.32375,48.7725 C22.37625,48.75 22.45125,48.75 22.5,48.75 L37.5,48.75 C37.54875,48.75 37.575,48.75 37.62375,48.77625 L37.62375,48.75 C37.9725,46.84875 39.0975,45.10125 40.8225,43.75125 C45.04875,40.4025 47.4975045,35.4 47.4975045,30 C47.50125,24.70125 45.15,19.75125 41.025,16.39875 L41.025,16.39875 Z M39.375,31.24875 C38.35125,31.24875 37.5,30.3975 37.5,29.37375 C37.5,25.575 34.425,22.5 30.62625,22.5 C29.6025,22.5 28.75125,21.64875 28.75125,20.625 C28.75125,19.60125 29.6025,18.75 30.62625,18.75 C36.47625,18.75 41.25,23.52375 41.25,29.37375 C41.25,30.40125 40.39875,31.24875 39.375,31.24875 Z" id="形状" fill="#E51400"></path>
                <path d="M22.32375,48.75 L22.5,48.75 C22.45125,48.75 22.37625,48.75 22.32375,48.77625 L22.32375,48.75 Z" id="路径" fill="#000000"></path>
                <path d="M37.62375,48.75 L37.62375,48.77625 C37.575,48.75 37.54875,48.75 37.5,48.75 L37.62375,48.75 Z" id="路径" fill="#000000"></path>
            </g>
        </g>
    </g>
</svg>