<?xml version="1.0" encoding="UTF-8"?>
<svg width="48px" height="48px" viewBox="0 0 60 60" version="1.1" xmlns="http://www.w3.org/2000/svg" xmlns:xlink="http://www.w3.org/1999/xlink">
    <!-- Generator: Sketch 61 (89581) - https://sketch.com -->
    <title>3064612</title>
    <desc>Created with Sketch.</desc>
    <g id="EXPAND" stroke="none" stroke-width="1" fill="none" fill-rule="evenodd">
        <g id="切图-EXPAND-China备份" transform="translate(-442.000000, -217.000000)" fill-rule="nonzero">
            <g id="3064612" transform="translate(442.000000, 217.000000)">
                <circle id="椭圆形" fill="#E51400" cx="30" cy="15" r="10.00125"></circle>
                <path d="M38.12625,30 L21.87375,30 C15.32625,30 9.9975,35.32875 9.9975,41.87625 L9.9975,48.1275 C9.9975,49.1625 10.8375,50.0025 11.8725,50.0025 L48.12375,50.0025 C49.15875,50.0025 49.998752,49.1625 49.998752,48.1275 L49.998752,41.87625 C50.0025,35.32875 44.67375,30 38.12625,30 Z" id="路径" fill="#AEAEAE"></path>
                <g id="编组" fill="#AEAEAE">
                    <path d="M12.49875,0 L7.5,0 C3.36375,0 0,3.36375 0,7.5 L0,12.49875 C0,13.8825 1.1175,15 2.4975,15 C3.8775,15 4.99875,13.8825 4.99875,12.49875 L4.99875,7.5 C4.99875,6.12 6.12,4.99875 7.5,4.99875 L12.49875,4.99875 C13.87875,4.99875 15,3.88125 15,2.50125 C15,1.12125 13.87875,0 12.49875,0 Z" id="路径"></path>
                    <path d="M12.49875,55.00125 L7.5,55.00125 C6.12,55.00125 4.99875,53.88 4.99875,52.5 L4.99875,47.50125 C4.99875,46.1175 3.8775,45 2.4975,45 C1.1175,45 0,46.1175 0,47.50125 L0,52.5 C0,56.63625 3.36375,60 7.5,60 L12.49875,60 C13.87875,60 15,58.8825 15,57.49875 C15,56.115 13.87875,55.00125 12.49875,55.00125 L12.49875,55.00125 Z" id="路径"></path>
                    <path d="M52.5,0 L47.50125,0 C46.12125,0 45,1.1175 45,2.50125 C45,3.885 46.12125,5.0025 47.50125,5.0025 L52.5,5.0025 C53.88,5.0025 55.00125,6.12375 55.00125,7.50375 L55.00125,12.5025 C55.00125,13.8825 56.1225,15.00375 57.5025,15.00375 C58.8825,15.00375 60,13.8825 60,12.49875 L60,7.5 C60,3.36375 56.63625,0 52.5,0 L52.5,0 Z" id="路径"></path>
                    <path d="M57.5025,45 C56.1225,45 55.00125,46.1175 55.00125,47.50125 L55.00125,52.5 C55.00125,53.88 53.88,55.00125 52.5,55.00125 L47.50125,55.00125 C46.12125,55.00125 45,56.11875 45,57.5025 C45,58.88625 46.12125,60 47.50125,60 L52.5,60 C56.63625,60 60,56.63625 60,52.5 L60,47.50125 C60,46.1175 58.8825,45 57.5025,45 L57.5025,45 Z" id="路径"></path>
                </g>
            </g>
        </g>
    </g>
</svg>