<?xml version="1.0" encoding="UTF-8"?>
<svg width="360px" height="59px" viewBox="0 0 360 59" version="1.1" xmlns="http://www.w3.org/2000/svg" xmlns:xlink="http://www.w3.org/1999/xlink">
    <!-- Generator: Sketch 61 (89581) - https://sketch.com -->
    <title>编组</title>
    <desc>Created with Sketch.</desc>
    <g id="EXPAND" stroke="none" stroke-width="1" fill="none" fill-rule="evenodd">
        <g id="切图-Home" transform="translate(-287.000000, -186.000000)" fill="#E51400">
            <g id="编组" transform="translate(287.000000, 186.000000)">
                <polygon id="Fill-1" points="0 58.6888441 14.6711936 58.6888441 14.6711936 0.959250744 0 0.959250744"></polygon>
                <polygon id="Fill-2" points="237.816764 58.6888441 252.487003 58.6888441 252.487003 0.959250744 237.816764 0.959250744"></polygon>
                <polygon id="Fill-3" points="237.817432 0.959442556 279.323427 58.6890359 293.994621 58.6890359 252.487671 0.959442556"></polygon>
                <polygon id="Fill-4" points="279.494642 58.6888441 294.164881 58.6888441 294.164881 0.959250744 279.494642 0.959250744"></polygon>
                <polygon id="Fill-5" points="194.027586 0.959442556 173.137082 58.6890359 187.807321 58.6890359 208.69878 0.959442556"></polygon>
                <polygon id="Fill-6" points="194.006674 0.959442556 214.897178 58.6890359 229.569326 58.6890359 208.676912 0.959442556"></polygon>
                <polygon id="Fill-7" points="127.558408 58.6888441 142.228647 58.6888441 142.228647 0.959250744 127.558408 0.959250744"></polygon>
                <polygon id="Fill-8" points="38.602122 0.959442556 76.2340584 58.6890359 94.7659416 58.6890359 57.1340053 0.959442556"></polygon>
                <polygon id="Fill-9" points="76.2331034 0.959442556 38.6011671 58.6890359 57.1330504 58.6890359 94.7659416 0.959442556"></polygon>
                <polygon id="Fill-10" points="14.6711936 13.5689576 33.0636605 13.5689576 33.0636605 0.959250744 14.6711936 0.959250744"></polygon>
                <polygon id="Fill-11" points="14.6702387 36.1298599 33.0636605 36.1298599 33.0636605 23.5201531 14.6702387 23.5201531"></polygon>
                <polygon id="Fill-12" points="189.491777 49.8376892 215.347798 49.8376892 215.347798 37.2279824 189.491777 37.2279824"></polygon>
                <polygon id="Fill-13" points="14.6711936 58.6888441 33.0636605 58.6888441 33.0636605 46.0791373 14.6711936 46.0791373"></polygon>
                <polygon id="Fill-14" points="105.515332 41.4938765 110.599257 41.4938765 110.599257 18.1532593 105.515332 18.1532593"></polygon>
                <polygon id="Fill-15" points="96.4379841 32.3761032 119.676605 32.3761032 119.676605 27.2710325 96.4379841 27.2710325"></polygon>
                <polygon id="Fill-16" points="118.071597 36.2708416 114.476371 39.8816984 98.0443289 23.3772533 101.639554 19.7663964"></polygon>
                <polygon id="Fill-17" points="98.0441379 36.2708416 101.639363 39.8816984 118.071406 23.3772533 114.47618 19.7663964"></polygon>
                <path d="M150.777645,0.958963026 L142.228361,0.958963026 L142.228361,12.772651 L150.777645,12.772651 C155.388891,12.772651 159.126398,16.5264076 159.126398,21.1577032 C159.126398,25.7880397 155.388891,29.5417964 150.777645,29.5417964 L142.228361,29.5417964 L142.228361,41.3554843 L150.777645,41.3554843 C161.885125,41.3554843 170.888944,32.3125176 170.888944,21.1577032 C170.888944,10.0028888 161.885125,0.958963026 150.777645,0.958963026" id="Fill-18"></path>
                <polyline id="Fill-20" points="305.744849 58.6888441 305.744849 0.959250744 320.415088 0.959250744 320.415088 58.6888441"></polyline>
                <path d="M330.723501,58.6888441 C346.595968,58.6888441 359.464297,45.765525 359.464297,29.8240474 C359.464297,13.8816108 346.595968,0.959250744 330.723501,0.959250744 L320.415279,0.959250744 L320.415279,17.8415651 L330.723501,17.8415651 C337.312361,17.8415651 342.654111,23.2065408 342.654111,29.8240474 C342.654111,36.4415541 337.312361,41.8055707 330.723501,41.8055707 L320.415279,41.8055707 L320.415279,58.6888441" id="Fill-22"></path>
            </g>
        </g>
    </g>
</svg>