<?xml version="1.0" encoding="UTF-8"?>
<svg width="14px" height="14px" viewBox="0 0 14 14" version="1.1" xmlns="http://www.w3.org/2000/svg" xmlns:xlink="http://www.w3.org/1999/xlink">
    <!-- Generator: Sketch 61 (89581) - https://sketch.com -->
    <title>部门管理</title>
    <desc>Created with Sketch.</desc>
    <g id="EXPAND" stroke="none" stroke-width="1" fill="none" fill-rule="evenodd">
        <g id="切图-EXPAND-China" transform="translate(-287.000000, -157.000000)" fill-rule="nonzero">
            <g id="部门管理" transform="translate(285.000000, 155.000000)">
                <rect id="矩形" fill="#000000" opacity="0" x="0" y="0" width="18" height="18"></rect>
                <path d="M9,8.93847656 C8.92089844,8.93847656 8.84179687,8.92089844 8.76796875,8.88925781 L2.63144531,6.11542969 C2.42929688,6.02402344 2.30097656,5.82363281 2.30097656,5.60214844 C2.30097656,5.38066406 2.43105469,5.18027344 2.63144531,5.08886719 L8.76972656,2.31503906 C8.915625,2.24824219 9.08613281,2.24824219 9.23203125,2.31503906 L15.3703125,5.08886719 C15.5724609,5.18027344 15.7007812,5.38066406 15.7007812,5.60214844 C15.7007812,5.82363281 15.5707031,6.02402344 15.3703125,6.11542969 L9.23203125,8.88925781 C9.15820312,8.92265625 9.07910156,8.93847656 9,8.93847656 Z" id="形状" fill="#E51400"></path>
                <path d="M9,12.2625 C8.92089844,12.2625 8.84179688,12.2449219 8.76796875,12.2132813 L2.63144531,9.43769531 C2.3484375,9.309375 2.221875,8.97539062 2.35019531,8.69414062 C2.47851563,8.409375 2.81425781,8.28632813 3.09375,8.41289062 L9,11.0830078 L14.90625,8.41289063 C15.1875,8.28632813 15.5232422,8.409375 15.6498047,8.69414063 C15.778125,8.97714844 15.6515625,9.309375 15.3685547,9.43769531 L9.23203125,12.2132812 C9.15820312,12.2449219 9.07910156,12.2625 9,12.2625 L9,12.2625 Z" id="路径" fill="#E51400"></path>
                <path d="M9,15.5865234 C8.92089844,15.5865234 8.84179688,15.5689453 8.76796875,15.5373047 L2.63144531,12.7617188 C2.3484375,12.6333984 2.221875,12.2994141 2.35019531,12.0181641 C2.47851563,11.7351563 2.81425781,11.6103516 3.09375,11.7369141 L9,14.4070313 L14.90625,11.7369141 C15.1875,11.6103516 15.5232422,11.7351563 15.6498047,12.0181641 C15.778125,12.3011719 15.6515625,12.6333984 15.3685547,12.7617188 L9.23203125,15.5373047 C9.15820312,15.5689453 9.07910156,15.5865234 9,15.5865234 L9,15.5865234 Z" id="路径" fill="#E51400"></path>
            </g>
        </g>
    </g>
</svg>