<?xml version="1.0" encoding="UTF-8"?>
<svg width="20px" height="15px" viewBox="0 0 20 15" version="1.1" xmlns="http://www.w3.org/2000/svg" xmlns:xlink="http://www.w3.org/1999/xlink">
    <!-- Generator: Sketch 61 (89581) - https://sketch.com -->
    <title>email</title>
    <desc>Created with Sketch.</desc>
    <g id="EXPAND" stroke="none" stroke-width="1" fill="none" fill-rule="evenodd">
        <g id="切图-Home" transform="translate(-158.000000, -246.000000)" fill-rule="nonzero">
            <g id="email" transform="translate(158.000000, 244.000000)">
                <rect id="矩形" fill="#000000" opacity="0" x="0" y="0" width="20" height="20"></rect>
                <path d="M9.57692309,11.5769231 C9.80769232,11.8076923 10.1538462,11.8076923 10.3846154,11.5769231 L19.0769231,3.5 C19.2307692,3.1923077 19.1923077,2.6923077 18.5769231,2.6923077 L1.38461539,2.73076924 C0.923076934,2.73076924 0.538461543,3.15384615 0.884615391,3.53846154 L9.57692309,11.5769231 Z M19.2307692,6.65384615 C19.2307692,6.26923076 18.7692308,6.03846154 18.4615385,6.3076923 L11.6538462,12.5769231 C11.1923077,13 10.6153846,13.2307692 10,13.2307692 C9.38461539,13.2307692 8.8076923,13 8.34615385,12.6153846 L1.57692309,6.3076923 C1.26923076,6.03846154 0.807692324,6.23076922 0.807692305,6.65384615 C0.769230762,6.53846154 0.769230762,15.3846154 0.769230762,15.3846154 C0.769230762,16.2307692 1.46153846,16.9230769 2.3076923,16.9230769 L17.6923077,16.9230769 C18.5384615,16.9230769 19.2307692,16.2307692 19.2307692,15.3846154 L19.2307692,6.65384615 Z" id="形状" fill="#E51400"></path>
            </g>
        </g>
    </g>
</svg>