<?xml version="1.0" encoding="UTF-8"?>
<svg width="19px" height="17px" viewBox="0 0 19 17" version="1.1" xmlns="http://www.w3.org/2000/svg" xmlns:xlink="http://www.w3.org/1999/xlink">
    <!-- Generator: Sketch 61 (89581) - https://sketch.com -->
    <title>插入链接</title>
    <desc>Created with Sketch.</desc>
    <g id="EXPAND" stroke="none" stroke-width="1" fill="none" fill-rule="evenodd">
        <g id="切图-EXPAND-China" transform="translate(-401.000000, -159.000000)" fill-rule="nonzero">
            <g id="插入链接" transform="translate(400.000000, 157.000000)">
                <rect id="矩形" fill="#000000" opacity="0" x="0" y="0" width="20" height="20"></rect>
                <path d="M17.783125,4.170625 C15.70625,1.605625 11.943125,1.21 9.3775,3.2875 L7.409375,4.88125 L8.3925,6.095625 L10.360625,4.501875 C11.5861576,3.50945813 13.2480446,3.24624101 14.7202691,3.81137497 C16.1924936,4.37650894 17.2513898,5.6841367 17.4980816,7.24168752 C17.7447735,8.79923834 17.1417827,10.3700832 15.91625,11.3625 L13.8075,13.07 L14.790625,14.284375 L16.899375,12.576875 C18.1314493,11.5794262 18.916758,10.1333358 19.0824986,8.55680766 C19.2482392,6.98027948 18.7808312,5.40249083 17.783125,4.170625 Z M10.085,16.085 C8.85946738,17.0774168 7.19758046,17.340634 5.72535595,16.7755 C4.25313145,16.210366 3.19423529,14.9027383 2.94754343,13.3451875 C2.70085156,11.7876367 3.30384235,10.2167918 4.529375,9.224375 L6.696875,7.469375 L5.71375,6.255 L3.54625,8.01 C0.98125,10.086875 0.585625,13.850625 2.6625,16.415625 C4.739375,18.980625 8.503125,19.37625 11.068125,17.299375 L13.12125,15.636875 L12.138125,14.4225 L10.085,16.085 Z M13.20625,6.9 L14.206875,8.1 L7.496875,13.691875 L6.496875,12.491875 L13.20625,6.9 Z" id="形状" fill="#E51400"></path>
            </g>
        </g>
    </g>
</svg>