<?xml version="1.0" encoding="UTF-8"?>
<svg width="95px" height="95px" viewBox="0 0 95 95" version="1.1" xmlns="http://www.w3.org/2000/svg" xmlns:xlink="http://www.w3.org/1999/xlink">
    <!-- Generator: Sketch 61 (89581) - https://sketch.com -->
    <title>编组 24</title>
    <desc>Created with Sketch.</desc>
    <g id="EXPAND" stroke="none" stroke-width="1" fill="none" fill-rule="evenodd">
        <g id="切图-Home" transform="translate(-24.000000, -346.000000)">
            <g id="编组-24" transform="translate(24.000000, 346.000000)">
                <g id="icon/2" fill="#FFEBE9">
                    <rect id="矩形" x="0" y="0" width="95" height="95" rx="8"></rect>
                </g>
                <g id="编组-14" transform="translate(26.000000, 23.000000)" fill-rule="nonzero">
                    <path d="M29.6875,13.8551563 C29.4826562,13.8551563 29.2807812,13.8135938 29.0907812,13.7304688 L16.72,8.28875 C16.1796875,8.04828125 15.8323437,7.516875 15.8323437,6.9290625 C15.8323437,6.34125 16.1796875,5.806875 16.72,5.569375 L29.0907812,0.12765625 C29.4707812,-0.03859375 29.9071875,-0.03859375 30.2871875,0.12765625 L42.6579687,5.569375 C43.1953125,5.806875 43.545625,6.33828125 43.545625,6.9290625 C43.545625,7.51984375 43.1982812,8.05125 42.6579687,8.28875 L30.2871875,13.7304688 C30.0942187,13.8135938 29.889375,13.8551563 29.6875,13.8551563 L29.6875,13.8551563 Z" id="路径" fill="#FF6556"></path>
                    <path d="M31.480625,16.446875 C30.9046875,16.6992188 30.305,16.8239063 29.6875,16.8239063 C29.07,16.8239063 28.4703125,16.6992188 27.9003125,16.4498438 L19.7896875,12.8814063 L19.7896875,14.2440625 C19.7896875,15.4523438 20.4220313,16.5864063 21.434375,17.2039063 C24.2873438,18.9346875 26.9859375,19.7985938 29.6845313,19.7985938 C32.383125,19.7985938 35.0817188,18.9317188 37.9346875,17.2039063 C38.95,16.5864063 39.5823438,15.4523438 39.5823438,14.2440625 L39.5823438,12.8814063 L31.480625,16.446875 Z" id="路径" fill="#FF6556"></path>
                    <path d="M35.625,22.68125 C33.6270312,23.4145313 31.6676562,23.75 29.6875,23.75 C26.2645312,23.75 22.8979687,22.7198438 19.3770312,20.5823438 C17.1979687,19.2582813 15.8323437,16.8239063 15.8323437,14.25 L15.8323437,12.23125 L15.1198437,11.9135938 C13.1396875,11.04375 11.875,9.084375 11.875,6.92609375 C11.875,4.7678125 13.1426562,2.8084375 15.1198437,1.93859375 L19.534375,5.68434189e-14 L5.9375,5.68434189e-14 C2.671875,5.68434189e-14 0,2.671875 0,5.9375 L0,34.6364063 C0,36.575 2.65109375,39.5853125 5.9375,39.5853125 L11.875,39.5853125 L11.875,46.015625 C11.875,47.3070313 13.4157812,47.975 14.3479687,47.1229688 L17.8125,44.0354688 L21.2770312,47.1229688 C22.1795312,47.9601563 23.75,47.3278125 23.75,46.015625 L23.75,39.5823438 L33.6448437,39.5823438 C34.734375,39.5823438 35.625,38.6917188 35.625,37.6021875 C35.625,36.1890625 35.625,25.0028125 35.625,22.68125 L35.625,22.68125 Z M11.875,35.625 L5.9375,35.625 C4.84796875,35.625 3.95734375,34.734375 3.95734375,33.6478125 C3.95734375,32.5582813 4.84796875,31.6676563 5.9375,31.6676563 L11.875,31.6676563 L11.875,35.625 Z M31.6646875,35.625 L23.7470312,35.625 L23.7470312,31.6676563 L31.6646875,31.6676563 L31.6646875,35.625 Z" id="形状" fill="#E51400"></path>
                </g>
            </g>
        </g>
    </g>
</svg>