<?xml version="1.0" encoding="UTF-8"?>
<svg width="95px" height="95px" viewBox="0 0 95 95" version="1.1" xmlns="http://www.w3.org/2000/svg" xmlns:xlink="http://www.w3.org/1999/xlink">
    <!-- Generator: Sketch 61 (89581) - https://sketch.com -->
    <title>icon3</title>
    <desc>Created with Sketch.</desc>
    <g id="EXPAND" stroke="none" stroke-width="1" fill="none" fill-rule="evenodd">
        <g id="切图-Home" transform="translate(-260.000000, -346.000000)">
            <g id="icon3" transform="translate(260.000000, 346.000000)">
                <rect id="矩形" fill="#FFEBE9" x="0" y="0" width="95" height="95" rx="8"></rect>
                <g id="编组-11" transform="translate(22.000000, 22.000000)" fill-rule="nonzero">
                    <g id="编组" transform="translate(0.000000, 6.251391)" fill="#FF6556">
                        <path d="M35.0640625,9.25 L32.7734375,11.540625 C33.1484375,12.26875 33.4828125,13.01875 33.7328125,13.790625 C34.6703125,13.625 35.6484375,13.540625 36.6484375,13.540625 L36.9203125,13.540625 C36.4828125,12.021875 35.8578125,10.584375 35.0640625,9.25 L35.0640625,9.25 Z M0.1703125,18.75 C0.1703125,29.084375 8.5859375,37.5 18.9203125,37.5 C19.8171875,37.5 20.7109375,37.4375 21.5859375,37.3125 C21.1265625,36.353125 20.7515625,35.353125 20.4828125,34.290625 C19.9609375,34.353125 19.4421875,34.375 18.9203125,34.375 C10.2953125,34.375 3.2953125,27.375 3.2953125,18.75 C3.2953125,10.125 10.2953125,3.125 18.9203125,3.125 C21.5234375,3.125 23.9828125,3.771875 26.1484375,4.915625 L28.4390625,2.625 C25.6484375,0.959375 22.3984375,1.11022302e-14 18.9203125,1.11022302e-14 C8.5859375,1.11022302e-14 0.1703125,8.415625 0.1703125,18.75 L0.1703125,18.75 Z" id="形状"></path>
                        <path d="M7.4609375,18.75 C7.4609375,25.0625 12.6078125,30.209375 18.9203125,30.209375 C19.2734375,30.209375 19.6296875,30.1875 19.9828125,30.146875 C19.9828125,29.0625 20.0859375,28 20.2953125,26.959375 C19.8578125,27.04375 19.3984375,27.084375 18.9203125,27.084375 C14.3171875,27.084375 10.5859375,23.35625 10.5859375,18.75 C10.5859375,14.14375 14.3140625,10.415625 18.9203125,10.415625 C19.4609375,10.415625 19.9828125,10.45625 20.4828125,10.58125 L23.0046875,8.059375 C21.7328125,7.559375 20.3578125,7.2875 18.9203125,7.2875 C12.6078125,7.290625 7.4609375,12.4375 7.4609375,18.75 Z" id="路径"></path>
                        <path d="M18.9203125,14.584375 C16.6296875,14.584375 14.7546875,16.459375 14.7546875,18.75 C14.7546875,21.040625 16.6296875,22.915625 18.9203125,22.915625 C21.2109375,22.915625 23.0859375,21.040625 23.0859375,18.75 C23.0859375,16.459375 21.2109375,14.584375 18.9203125,14.584375 L18.9203125,14.584375 Z M18.9203125,19.790625 C18.3359375,19.790625 17.8796875,19.33125 17.8796875,18.75 C17.8796875,18.16875 18.3390625,17.709375 18.9203125,17.709375 C19.5046875,17.709375 19.9609375,18.16875 19.9609375,18.75 C19.9609375,19.33125 19.5015625,19.790625 18.9203125,19.790625 Z" id="形状"></path>
                    </g>
                    <path d="M18.9390625,26.5638912 C18.5390625,26.5638912 18.1390625,26.4107662 17.8328125,26.1076412 C17.2234375,25.4982662 17.2234375,24.5076412 17.8328125,23.8982662 L31.3734375,10.3576412 C31.9828125,9.74826617 32.9734375,9.74826617 33.5828125,10.3576412 C34.1921875,10.9670162 34.1921875,11.9576412 33.5828125,12.5670162 L20.0421875,26.1076412 C19.7390625,26.4107662 19.3390625,26.5638912 18.9390625,26.5638912 L18.9390625,26.5638912 Z" id="路径" fill="#E51400"></path>
                    <path d="M38.2109375,12.5013912 L33.0015625,12.5013912 C32.1390625,12.5013912 31.4390625,11.8013912 31.4390625,10.9388912 L31.4390625,5.72951617 C31.4390625,5.31701617 31.6046875,4.91701617 31.8953125,4.62326617 L36.0609375,0.457641173 C36.5078125,0.010766173 37.1796875,-0.123608827 37.7640625,0.120141173 C38.3484375,0.360766173 38.7296875,0.932641173 38.7296875,1.56389117 L38.7296875,5.21076617 L42.3765625,5.21076617 C43.0078125,5.21076617 43.5765625,5.59201617 43.8203125,6.17639117 C44.0609375,6.76076617 43.9296875,7.43264117 43.4828125,7.87951617 L39.3171875,12.0451412 C39.0234375,12.3357662 38.6265625,12.5013912 38.2109375,12.5013912 L38.2109375,12.5013912 Z" id="路径" fill="#E51400"></path>
                    <path d="M36.6484375,22.9170162 C29.1828125,22.9170162 23.1078125,28.9920162 23.1078125,36.4576412 C23.1078125,43.9232662 29.1828125,50.0013912 36.6484375,50.0013912 C44.1140625,50.0013912 50.1890625,43.9263912 50.1890625,36.4607662 C50.1890625,28.9951412 44.1140625,22.9170162 36.6484375,22.9170162 Z M42.4828125,33.8763912 L35.7109375,41.1670162 C35.4046875,41.4982662 34.9859375,41.6670162 34.5640625,41.6670162 C34.2015625,41.6670162 33.8421875,41.5420162 33.5453125,41.2920162 L29.8984375,38.1670162 C29.2421875,37.6045162 29.1671875,36.6201412 29.7296875,35.9638912 C30.2921875,35.3076412 31.2765625,35.2295162 31.9328125,35.7951412 L34.4390625,37.9420162 L40.1890625,31.7513912 C40.7765625,31.1201412 41.7640625,31.0826412 42.3984375,31.6701412 C43.0328125,32.2576412 43.0671875,33.2451412 42.4828125,33.8763912 L42.4828125,33.8763912 Z" id="形状" fill="#E51400"></path>
                </g>
            </g>
        </g>
    </g>
</svg>