<?xml version="1.0" encoding="UTF-8"?>
<svg width="95px" height="95px" viewBox="0 0 95 95" version="1.1" xmlns="http://www.w3.org/2000/svg" xmlns:xlink="http://www.w3.org/1999/xlink">
    <!-- Generator: Sketch 61 (89581) - https://sketch.com -->
    <title>icon1</title>
    <desc>Created with Sketch.</desc>
    <g id="EXPAND" stroke="none" stroke-width="1" fill="none" fill-rule="evenodd">
        <g id="切图-Home" transform="translate(-142.000000, -346.000000)">
            <g id="icon1" transform="translate(142.000000, 346.000000)">
                <rect id="矩形" fill="#FFEBE9" x="0" y="0" width="95" height="95" rx="8"></rect>
                <path d="M60.809375,50.125 C58.1625,50.125 55.35,48.084375 55.35,44.3125 L55.35,41.584375 C55.328125,41.41875 55.203125,41.25 54.996875,41.084375 C51.871875,38.646875 50.14375,35 50.225,31.0625 C50.309375,28.040625 51.475,25.25 53.390625,23.103125 C52.078125,22.603125 50.703125,22.290625 49.265625,22.125 C48.65,22.05 47.371875,22 46.996875,22 C41.95625,22 37.225,23.959375 33.64375,27.540625 C32.103125,29.08125 30.853125,30.9375 29.978125,33.01875 C28.83125,35.496875 28.25,38.14375 28.25,40.853125 C28.25,41.165625 28.271875,41.478125 28.290625,41.790625 L28.290625,41.875 C28.165625,42.709375 27.875,43.478125 27.478125,44.125 L22.875,50.790625 C22.290625,51.6875 22,52.1875 22,52.75 C22,54.165625 23.165625,55.334375 24.584375,55.334375 L28.375,55.334375 L28.375,61.125 C28.375,63.6875 30.459375,65.75 33,65.75 C33.5,65.75 33.978125,65.665625 34.3125,65.5625 L38.771875,64.334375 L38.771875,70.4375 C38.771875,71.290625 39.48125,72 40.334375,72 L58.04375,72 C58.896875,72 59.60625,71.290625 59.60625,70.4375 L59.60625,60.1875 C59.60625,57.709375 60.29375,55.1875 61.584375,52.915625 C62.3125,52.040625 62.959375,51.103125 63.521875,50.125 L60.809375,50.125 Z" id="路径" fill="#E51400" fill-rule="nonzero"></path>
                <g id="编组" transform="translate(53.182812, 22.000000)" fill="#FF6556" fill-rule="nonzero">
                    <path d="M13.7953125,21.1875 L13.7953125,22.6875 C13.7953125,23.959375 12.7546875,25 11.4609375,25 L7.6265625,25 C6.5015625,25 5.2921875,24.165625 5.2921875,22.3125 L5.2921875,21.1875 L13.7953125,21.1875 Z" id="路径"></path>
                    <path d="M18.9203125,9.3125 C18.9203125,12.125 17.6703125,14.75 15.4828125,16.521875 C14.6078125,17.23125 14.0453125,18.146875 13.8578125,19.10625 L5.2546875,19.10625 C5.1078125,18.16875 4.5890625,17.29375 3.7328125,16.628125 C1.4203125,14.815625 0.1078125,12.0875 0.1703125,9.128125 C0.2734375,4.16875 4.4203125,0.065625 9.3984375,0.003125 C11.9203125,-0.059375 14.3359375,0.91875 16.1484375,2.7125 C17.9390625,4.45625 18.9203125,6.8125 18.9203125,9.3125 L18.9203125,9.3125 Z" id="路径"></path>
                </g>
            </g>
        </g>
    </g>
</svg>