<?xml version="1.0" encoding="UTF-8"?>
<svg width="24px" height="50px" viewBox="0 0 24 50" version="1.1" xmlns="http://www.w3.org/2000/svg" xmlns:xlink="http://www.w3.org/1999/xlink">
    <!-- Generator: Sketch 61 (89581) - https://sketch.com -->
    <title>编组 3</title>
    <desc>Created with Sketch.</desc>
    <g id="EXPAND" stroke="none" stroke-width="1" fill="none" fill-rule="evenodd">
        <g id="切图-Home" transform="translate(-197.000000, -252.000000)" fill-rule="nonzero">
            <g id="编组-3" transform="translate(194.000000, 243.000000)">
                <g id="下拉" opacity="0.0995396205" transform="translate(0.000000, 36.000000)">
                    <rect id="矩形" fill="#000000" opacity="0" x="0" y="0" width="30" height="30"></rect>
                    <polygon id="路径" fill="#605E5C" points="6.37125 9.135 17.64 20.40375 14.990625 23.056875 3.721875 11.788125"></polygon>
                    <polygon id="路径" fill="#605E5C" points="26.259375 11.776875 14.990625 23.045625 12.3375 20.394375 23.60625 9.125625"></polygon>
                </g>
                <g id="下拉备份" opacity="0.248070126" transform="translate(0.000000, 18.000000)">
                    <rect id="矩形" fill="#000000" opacity="0" x="0" y="0" width="30" height="30"></rect>
                    <polygon id="路径" fill="#605E5C" points="6.37125 9.135 17.64 20.40375 14.990625 23.056875 3.721875 11.788125"></polygon>
                    <polygon id="路径" fill="#605E5C" points="26.259375 11.776875 14.990625 23.045625 12.3375 20.394375 23.60625 9.125625"></polygon>
                </g>
                <g id="下拉备份-2" opacity="0.602980841">
                    <rect id="矩形" fill="#000000" opacity="0" x="0" y="0" width="30" height="30"></rect>
                    <polygon id="路径" fill="#605E5C" points="6.37125 9.135 17.64 20.40375 14.990625 23.056875 3.721875 11.788125"></polygon>
                    <polygon id="路径" fill="#605E5C" points="26.259375 11.776875 14.990625 23.045625 12.3375 20.394375 23.60625 9.125625"></polygon>
                </g>
            </g>
        </g>
    </g>
</svg>