<?xml version="1.0" encoding="UTF-8"?>
<svg width="40px" height="35px" viewBox="0 0 40 35" version="1.1" xmlns="http://www.w3.org/2000/svg" xmlns:xlink="http://www.w3.org/1999/xlink">
    <!-- Generator: Sketch 61 (89581) - https://sketch.com -->
    <title>ic_quote left备份 2</title>
    <desc>Created with Sketch.</desc>
    <g id="EXPAND" stroke="none" stroke-width="1" fill="none" fill-rule="evenodd">
        <g id="切图-Home" transform="translate(-26.000000, -459.000000)" fill="#E51400" fill-rule="nonzero">
            <path d="M44.4637473,479.685193 C44.4637473,477.044442 42.393908,474.903691 39.8406317,474.903691 L34.4565686,474.903691 C33.1878599,474.903691 32.1593683,473.839964 32.1593683,472.52779 L32.1593683,471.725923 C32.1593683,468.215857 34.9105833,465.370386 38.304379,465.370386 L39.8406317,465.370386 C40.6913979,465.362238 41.3769209,464.646603 41.3768844,463.766653 L41.3768844,460.588884 C41.3690941,459.714727 40.6858328,459.008057 39.8406317,459 L38.304379,459 C31.5154086,459.016329 26.0157884,464.704365 26,471.725923 L26,489.233347 C26,491.865897 28.0634113,494 30.6087581,494 L39.8406317,494 C42.3883115,494 44.4558353,491.868297 44.4637473,489.233347 L44.4637473,479.685193 Z M66,479.685193 C66,477.044442 63.9301607,474.903691 61.3768844,474.903691 L55.9928212,474.903691 C55.3835659,474.903691 54.799264,474.653374 54.3684553,474.207806 C53.9376467,473.762238 53.695621,473.157918 53.695621,472.52779 L53.695621,471.725923 C53.695621,468.215857 56.446836,465.370386 59.8406317,465.370386 L61.3768844,465.370386 C62.2276506,465.362238 62.9131736,464.646603 62.9131371,463.766653 L62.9131371,460.588884 C62.9053467,459.714727 62.2220854,459.008057 61.3768844,459 L59.8406317,459 C53.0516613,459.016329 47.5520411,464.704365 47.5362527,471.725923 L47.5362527,489.233347 C47.5362527,491.865897 49.599664,494 52.1450108,494 L61.3768844,494 C63.9245642,494 65.992088,491.868297 66,489.233347 L66,479.685193 Z" id="ic_quote-left备份-2"></path>
        </g>
    </g>
</svg>