<?xml version="1.0" encoding="UTF-8"?>
<svg width="24px" height="24px" viewBox="0 0 24 24" version="1.1" xmlns="http://www.w3.org/2000/svg" xmlns:xlink="http://www.w3.org/1999/xlink">
    <!-- Generator: Sketch 61 (89581) - https://sketch.com -->
    <title>搜索</title>
    <desc>Created with Sketch.</desc>
    <g id="EXPAND" stroke="none" stroke-width="1" fill="none" fill-rule="evenodd">
        <g id="切图-EXPAND-China" transform="translate(-52.000000, -153.000000)" fill-rule="nonzero">
            <g id="搜索" transform="translate(52.000000, 153.000000)">
                <rect id="矩形" fill="#000000" opacity="0" x="0" y="0" width="24" height="24"></rect>
                <path d="M19.6773333,18.16 L23.6826667,22.166 C23.8856687,22.366527 23.9999244,22.6399898 23.9999244,22.9253333 C23.9999244,23.2106769 23.8856687,23.4841396 23.6826667,23.6846667 C23.4809492,23.8856594 23.2080911,23.998971 22.9233333,24 C22.6385756,23.998971 22.3657175,23.8856594 22.164,23.6846667 L18.16,19.68 C13.74603,23.3126159 7.29521566,22.9998841 3.25333334,18.9573333 C0.0779555819,15.7814248 -0.871997594,11.0056102 0.846327136,6.85629958 C2.56465187,2.70698895 6.61296255,0.00107005337 11.104,0 C17.236,0 22.2066667,4.97133333 22.2066667,11.1046667 C22.2066667,13.7346667 21.2786666,16.2126667 19.6766667,18.1606667 L19.6773333,18.16 Z M11.104,2.14999999 C6.16133334,2.15799998 2.15733335,6.16266666 2.14933334,11.1053333 C2.14933334,16.0506667 6.15866667,20.0606667 11.104,20.0606667 C16.0493333,20.0606667 20.058,16.0506667 20.058,11.1053333 C20.058,6.15933335 16.0493333,2.14999999 11.104,2.14999999 Z" id="形状" fill="#605E5C"></path>
            </g>
        </g>
    </g>
</svg>