<?xml version="1.0" standalone="no"?><!DOCTYPE svg PUBLIC "-//W3C//DTD SVG 1.1//EN" "http://www.w3.org/Graphics/SVG/1.1/DTD/svg11.dtd"><svg t="1591325371348" class="icon" viewBox="0 0 1408 1024" version="1.1" xmlns="http://www.w3.org/2000/svg" p-id="2492" xmlns:xlink="http://www.w3.org/1999/xlink" width="275" height="200"><defs><style type="text/css"></style></defs><path d="M948.67264 15.36a48.64 48.64 0 0 0-70.912 0 52.48 52.48 0 0 0 0 72.192l359.68 369.536H50.49664A50.688 50.688 0 0 0 0.00064 508.032c0 28.48 22.72 51.776 50.432 51.776h1187.072l-359.68 368.896a53.248 53.248 0 0 0 0 72.96 48.768 48.768 0 0 0 70.848 0l444.928-457.088a52.48 52.48 0 0 0 0-72.192L948.67264 15.36z" p-id="2493"></path></svg>