<svg width="12" height="12" viewBox="0 0 12 12" fill="none" xmlns="http://www.w3.org/2000/svg">
<path fill-rule="evenodd" clip-rule="evenodd" d="M6 12C2.68629 12 0 9.31371 0 6C0 2.68629 2.68629 0 6 0C9.31371 0 12 2.68629 12 6C12 9.31371 9.31371 12 6 12ZM5.953 1.781C3.57818 1.781 1.653 3.70618 1.653 6.081C1.653 8.45582 3.57818 10.381 5.953 10.381C8.32782 10.381 10.253 8.45582 10.253 6.081C10.253 3.70618 8.32782 1.781 5.953 1.781ZM3.5 7H6.5C6.77614 7 7 6.77614 7 6.5V3.5C7 3.22386 6.77614 3 6.5 3C6.22386 3 6 3.22386 6 3.5V6H3.5C3.22386 6 3 6.22386 3 6.5C3 6.77614 3.22386 7 3.5 7Z" fill="black"/>
</svg>