<?xml version="1.0" standalone="no"?><!DOCTYPE svg PUBLIC "-//W3C//DTD SVG 1.1//EN" "http://www.w3.org/Graphics/SVG/1.1/DTD/svg11.dtd"><svg t="1594100102282" class="icon" viewBox="0 0 1024 1024" version="1.1" xmlns="http://www.w3.org/2000/svg" p-id="8553" xmlns:xlink="http://www.w3.org/1999/xlink" width="16" height="16"><defs><style type="text/css"></style></defs><path d="M288.578999 244.01248l89.39296 0 0 536.105001-89.39296 0L288.578999 244.01248zM958.70846 244.01248l0 536.105001c0 98.642624-79.971379 178.61298-178.700985 178.61298L243.903497 958.730461c-98.642624 0-178.61298-79.969333-178.61298-178.61298L65.290517 244.01248c0-98.730629 79.969333-178.744987 178.61298-178.744987l536.105001 0C878.73708 65.267493 958.70846 145.280828 958.70846 244.01248zM869.401458 288.687982c0-74.03825-60.075237-134.113487-134.069485-134.113487L288.578999 154.574494c-74.03825 0-134.027529 60.075237-134.027529 134.113487l0 446.665992c0 74.082252 59.989279 134.069485 134.027529 134.069485l446.752973 0c73.994248 0 134.069485-59.987233 134.069485-134.069485L869.401458 288.687982zM422.603459 512.064468l357.404016-134.069485L422.603459 244.01248 422.603459 512.064468z" p-id="8554" fill="#F05252"></path></svg>