<svg width="33" height="31" viewBox="0 0 33 31" fill="none" xmlns="http://www.w3.org/2000/svg">
<path d="M16.5 31C25.6127 31 33 24.0604 33 15.5C33 6.93959 25.6127 0 16.5 0C7.3873 0 0 6.93959 0 15.5C0 24.0604 7.3873 31 16.5 31Z" fill="#EAEAEA"/>
<path d="M13.1186 8.21171C13.2533 8.07694 13.4414 8.00049 13.6382 8.00049C13.8351 8.00049 14.0231 8.07694 14.1579 8.21171C14.439 8.4904 14.439 8.92693 14.1579 9.20561L8.88654 14.2932H26.2819C26.4791 14.2939 26.6679 14.3682 26.8067 14.4997C26.9455 14.6313 27.023 14.8093 27.022 14.9945C27.022 15.3866 26.689 15.7073 26.2829 15.7073H8.8856L14.1569 20.7861C14.4395 21.0683 14.4395 21.5083 14.1569 21.7905C14.0219 21.9246 13.8342 22.0005 13.6378 22.0005C13.4414 22.0005 13.2536 21.9246 13.1186 21.7905L6.59792 15.4976C6.31683 15.219 6.31683 14.7824 6.59792 14.5037L13.1186 8.21171Z" fill="white"/>
</svg>