<?xml version="1.0" standalone="no"?><!DOCTYPE svg PUBLIC "-//W3C//DTD SVG 1.1//EN" "http://www.w3.org/Graphics/SVG/1.1/DTD/svg11.dtd"><svg t="1591344065300" class="icon" viewBox="0 0 1024 1024" version="1.1" xmlns="http://www.w3.org/2000/svg" p-id="2628" xmlns:xlink="http://www.w3.org/1999/xlink" width="12" height="12"><defs><style type="text/css"></style></defs><path d="M828.756759 880.559077 781.236466 880.559077c0.177032-3.947915 0.589424-7.807826 0.589424-11.799744 0-149.687184-120.815623-271.0206-269.827425-271.0206-149.010779 0-269.827425 121.332393-269.827425 271.0206 0 3.991917 0.412392 7.851828 0.588401 11.799744l-47.51927 0c0-135.665843 83.932598-251.311723 202.158233-297.68182-75.125001-41.098024-126.150118-121.362069-126.150118-213.632565 0-134.13293 107.795075-242.87047 240.750179-242.87047s240.750179 108.73754 240.750179 242.87047c0 92.269473-51.025117 172.533518-126.149095 213.632565C744.824161 629.247354 828.756759 744.893234 828.756759 880.559077zM702.047916 369.244692c0-105.880469-85.080747-191.727673-190.048427-191.727673s-190.048427 85.848227-190.048427 191.727673c0 105.894795 85.080747 191.741999 190.048427 191.741999S702.047916 475.140511 702.047916 369.244692z" p-id="2629"></path></svg>